<svg id="Layer_1" data-name="Layer 1" xmlns="http://www.w3.org/2000/svg" viewBox="0 0 456.924 278.216">
  <defs>
    <style>
      .cls-1 {
        fill-rule: evenodd;
      }
    </style>
  </defs>
  <title>cargo negro</title>
  <path class="cls-1" d="M242.995,265.9a34.7,34.7,0,0,1,.093-4.2l-.093,4.2Zm177.487,4.456L420.409,320c0,6.784-7.28,6.957-7.28,6.957H328.563c-7.284-.2-46.25-2.636-70.884-31.362,0,0-11.3-13.753-14.36-31.132l-.232-2.759s-.167,2.81-.093,4.2c0,0-.285,13.456,14.592,33.89,0,0,13.494,19.6,48.179,27.941,6.115,1.188,9.292,1.845,16.653,2.794l5.925.559c.441.029.879.061,1.325.086l0-.086h2.054a9.2,9.2,0,0,0-2.055,5.771c0,5.39,4.755,9.759,10.62,9.759s10.621-4.369,10.621-9.759a9.2,9.2,0,0,0-2.056-5.771h6.263a9.2,9.2,0,0,0-2.056,5.771c0,5.39,4.755,9.759,10.62,9.759s10.621-4.369,10.621-9.759a9.2,9.2,0,0,0-2.055-5.771H445.1a9.2,9.2,0,0,0-2.055,5.771c0,5.39,4.755,9.759,10.62,9.759s10.621-4.369,10.621-9.759a9.2,9.2,0,0,0-2.055-5.771H475.5c4.357-.045,4.041-4.358,4.041-4.358V315.318a3.717,3.717,0,0,0-.722-2.115c-1.775-1.684-1.8-2.877-1.8-2.877V299.183c0-5.031-5.124-7.953-5.124-7.953a60.464,60.464,0,0,1-6.7-4.223L446.766,269.62c-2.515-2.246-4.583-1.911-4.583-1.911H431.991c.039-.379-.033-1.666-.009-2.472,3.813-128.45-179.407-118.961-184.668-13.927,0,0-1.438,48.413,55.709,66.743,7.593,2.41,24.013,5.409,31.715,5.409h74.31s7.1.182,7.1-7.546V256.881s.272-5.571-6.646-5.571h-6.213a126.508,126.508,0,0,0-6.905-22.908c16.468-3.979,25.348-7.968,25.348-7.968v-.125c6.27,11.9,10.151,27.348,9.99,47.4h-9.531c-1.887,0-1.707,2.651-1.707,2.651Zm.056-52.222c-8.728,2.822-17.27,5.119-25.574,6.966a102.8,102.8,0,0,0-16.922-26.418,128.968,128.968,0,0,0,17.821-5.374,67.11,67.11,0,0,1,24.675,24.826Zm-144.669,7.014A62.042,62.042,0,0,1,293.779,198.9a213.549,213.549,0,0,0,25.612,3.922,117.61,117.61,0,0,0-12.228,27.572,234.419,234.419,0,0,1-31.3-5.238Zm35.66,5.645a123.543,123.543,0,0,1,11.585-27.662,158.868,158.868,0,0,0,21.44.358l1.7-.114c.645,8.687,1.416,18.677,2.2,28.028a273.92,273.92,0,0,1-36.926-.611Zm40.68.4c-1.029-9.354-2.174-19.232-3.314-28.017a205.092,205.092,0,0,0,25.44-3.668,108.176,108.176,0,0,1,17.635,26.242,279.257,279.257,0,0,1-39.76,5.443Zm41.232-2.1a78.515,78.515,0,0,1,5.721,22.217H354.34c-.489-4.779-1.063-10.27-1.69-16.065a287.106,287.106,0,0,0,40.791-6.153Zm-44.634,6.44c.5,5.8,1,11.229,1.48,15.777H320.274s-8-.314-8,5.8v27.969a37.089,37.089,0,0,1-6.081-.21,152.806,152.806,0,0,1,4.3-50.264,240.482,240.482,0,0,0,36.6,1.045l1.713-.114ZM306.1,234.147c-3.683,13.745-5.709,30.355-4.3,50.03-10.707-2.217-26.133-9.5-28.787-32.868a59.188,59.188,0,0,1,1.656-22.276,295.432,295.432,0,0,0,31.429,5.114Zm87.482-42.128c-5.977,1.837-11.824,3.329-17.505,4.523a92.74,92.74,0,0,0-18.248-14.91c10.474,1.041,23.536,3.782,35.753,10.387ZM296.54,196.61a73.191,73.191,0,0,1,40.626-15.132l2.617-.221c-1.675.109-2.617.221-2.617.221s-7.8,5.97-16.121,18.725a172.119,172.119,0,0,1-24.5-3.593Zm28.175,3.837a104.026,104.026,0,0,1,15.108-19.193c1.235-.08,2.869-.157,4.828-.185.205,2.972.714,10.285,1.385,19.411a193.927,193.927,0,0,1-21.322-.032Zm23.806-.115c-.351-2.629-.7-5.137-1.044-7.477-.546-3.724-.7-8.607-1.08-11.8,2.263,0,4.869.073,7.731.266A119.462,119.462,0,0,1,372.307,197.3a196.537,196.537,0,0,1-23.786,3.032Zm15.161,133.822a2.706,2.706,0,1,1-2.707,2.705,2.705,2.705,0,0,1,2.707-2.705Zm-23.393,0a2.706,2.706,0,1,1-2.706,2.705,2.705,2.705,0,0,1,2.706-2.705Zm113.379,0a2.706,2.706,0,1,1-2.706,2.705,2.706,2.706,0,0,1,2.706-2.705Zm1.4-3.065a6.05,6.05,0,0,1,5.034,5.771,6.456,6.456,0,0,1-12.865,0,6.05,6.05,0,0,1,5.034-5.771Zm-89.987,0a6.05,6.05,0,0,1,5.034,5.771,6.456,6.456,0,0,1-12.865,0,6.05,6.05,0,0,1,5.034-5.771Zm-23.392,0a6.05,6.05,0,0,1,5.035,5.771,6.456,6.456,0,0,1-12.866,0,6.05,6.05,0,0,1,5.034-5.771ZM429.009,271.8l13.568-.09a4.122,4.122,0,0,1,1.326.989l14.174,13.3s.855.986.765,1.482c0,0,0,1.168-.921,1.168H429.009Z" transform="translate(-115.311 -170.708)"/>
  <path class="cls-1" d="M136.569,400.978a20.047,20.047,0,0,1-9.739-2.365,17.429,17.429,0,0,1-6.815-6.535,19.091,19.091,0,0,1,.025-18.817,17.618,17.618,0,0,1,6.84-6.535,20.048,20.048,0,0,1,9.739-2.365,20.31,20.31,0,0,1,7.985,1.526,16.286,16.286,0,0,1,6.1,4.424l-4.272,4.018a12.459,12.459,0,0,0-9.51-4.17,13.336,13.336,0,0,0-6.56,1.6,11.542,11.542,0,0,0-4.526,4.45,13.631,13.631,0,0,0,0,12.917,11.541,11.541,0,0,0,4.526,4.45,13.335,13.335,0,0,0,6.56,1.6,12.39,12.39,0,0,0,9.51-4.221l4.272,4.069a16.241,16.241,0,0,1-6.128,4.425A20.5,20.5,0,0,1,136.569,400.978Z" transform="translate(-115.311 -170.708)"/>
  <path class="cls-1" d="M179.39,392.231h-17.8l-3.509,8.239h-6.815l16.02-35.6h6.51l16.071,35.6H182.95l-3.56-8.239Zm-2.187-5.187-6.713-15.562-6.662,15.562Z" transform="translate(-115.311 -170.708)"/>
  <path class="cls-1" d="M217.685,400.47l-7.273-10.426a13.59,13.59,0,0,1-1.373.051H201V400.47h-6.611v-35.6H209.04A19.707,19.707,0,0,1,217.1,366.4a11.721,11.721,0,0,1,5.264,4.374,12.236,12.236,0,0,1,1.831,6.764,12.062,12.062,0,0,1-1.958,6.917,11.65,11.65,0,0,1-5.62,4.322l8.188,11.7Zm-.153-22.936A6.382,6.382,0,0,0,215.3,372.3q-2.238-1.831-6.56-1.831H201v14.189h7.73q4.323,0,6.56-1.856A6.456,6.456,0,0,0,217.533,377.533Z" transform="translate(-115.311 -170.708)"/>
  <path class="cls-1" d="M255.879,382.263h6.255v14.189a19.89,19.89,0,0,1-6.408,3.357,24.588,24.588,0,0,1-7.527,1.17,20.3,20.3,0,0,1-9.815-2.365,17.567,17.567,0,0,1-6.866-6.535,19.007,19.007,0,0,1,0-18.817,17.525,17.525,0,0,1,6.891-6.535,20.554,20.554,0,0,1,9.892-2.365,21.6,21.6,0,0,1,8.137,1.475,15.967,15.967,0,0,1,6.153,4.323l-4.17,4.069a13.376,13.376,0,0,0-9.815-4.069,13.868,13.868,0,0,0-6.687,1.577,11.5,11.5,0,0,0-4.577,4.425,12.73,12.73,0,0,0-1.653,6.51,12.532,12.532,0,0,0,1.653,6.408,11.848,11.848,0,0,0,4.577,4.475,13.413,13.413,0,0,0,6.637,1.627,14.319,14.319,0,0,0,7.323-1.831Z" transform="translate(-115.311 -170.708)"/>
  <path class="cls-1" d="M287.461,400.978a20.3,20.3,0,0,1-9.815-2.365,17.511,17.511,0,0,1-6.866-6.56,18.911,18.911,0,0,1,0-18.766,17.513,17.513,0,0,1,6.866-6.561,21.551,21.551,0,0,1,19.63,0,17.569,17.569,0,0,1,6.866,6.535,19.007,19.007,0,0,1,0,18.817,17.567,17.567,0,0,1-6.866,6.535,20.3,20.3,0,0,1-9.815,2.365Zm0-5.8a12.843,12.843,0,0,0,6.408-1.6,11.587,11.587,0,0,0,4.475-4.475,13.53,13.53,0,0,0,0-12.867,11.587,11.587,0,0,0-4.475-4.476,13.618,13.618,0,0,0-12.816,0,11.588,11.588,0,0,0-4.475,4.476,13.53,13.53,0,0,0,0,12.867,11.589,11.589,0,0,0,4.475,4.475A12.843,12.843,0,0,0,287.461,395.181Z" transform="translate(-115.311 -170.708)"/>
  <path class="cls-1" d="M342.335,364.87A19.707,19.707,0,0,1,350.4,366.4a11.721,11.721,0,0,1,5.264,4.374,13.365,13.365,0,0,1,0,13.5,11.667,11.667,0,0,1-5.264,4.4,19.711,19.711,0,0,1-8.061,1.526H334.3V400.47h-6.611v-35.6Zm-.3,19.733q4.323,0,6.56-1.831a7.25,7.25,0,0,0,0-10.477q-2.238-1.831-6.56-1.831H334.3V384.6Z" transform="translate(-115.311 -170.708)"/>
  <polygon class="cls-1" points="248.791 194.162 255.402 194.162 255.402 224.167 274.015 224.167 274.015 229.761 248.791 229.761 248.791 194.162"/>
  <path class="cls-1" d="M417.908,392.231h-17.8L396.6,400.47h-6.815l16.02-35.6h6.51l16.071,35.6h-6.916l-3.56-8.239Zm-2.187-5.187-6.713-15.562-6.662,15.562Z" transform="translate(-115.311 -170.708)"/>
  <polygon class="cls-1" points="349.232 194.162 349.232 229.761 343.791 229.761 324.16 205.655 324.16 229.761 317.6 229.761 317.6 194.162 323.042 194.162 342.672 218.268 342.672 194.162 349.232 194.162"/>
  <polygon class="cls-1" points="385.493 224.218 385.493 229.761 358.794 229.761 358.794 194.162 384.782 194.162 384.782 199.705 365.405 199.705 365.405 208.961 382.595 208.961 382.595 214.403 365.405 214.403 365.405 224.218 385.493 224.218"/>
  <polygon class="cls-1" points="400.089 199.756 388.291 199.756 388.291 194.162 418.499 194.162 418.499 199.756 406.7 199.756 406.7 229.761 400.089 229.761 400.089 199.756"/>
  <path class="cls-1" d="M560.1,392.231H542.3l-3.509,8.239h-6.815L548,364.87h6.51l16.071,35.6h-6.916l-3.56-8.239Zm-2.187-5.187L551.2,371.481l-6.662,15.562Z" transform="translate(-115.311 -170.708)"/>
  <polygon class="cls-1" points="9.214 247.065 0 247.065 0 245.383 20.292 245.383 20.292 247.065 11.078 247.065 11.078 270.977 9.214 270.977 9.214 247.065"/>
  <path class="cls-1" d="M140.868,426.767a6.6,6.6,0,0,1,2.742-3.2,8.681,8.681,0,0,1,4.534-1.115v1.791l-.439-.037a6.344,6.344,0,0,0-4.973,1.993,7.99,7.99,0,0,0-1.792,5.539v9.945h-1.828V422.6h1.755Z" transform="translate(-115.311 -170.708)"/>
  <path class="cls-1" d="M159.625,422.453a7.6,7.6,0,0,1,5.448,1.81,7.006,7.006,0,0,1,1.9,5.32v12.1h-1.755v-3.4a6.348,6.348,0,0,1-2.669,2.614,8.851,8.851,0,0,1-4.2.932,7.75,7.75,0,0,1-5.027-1.5,5.185,5.185,0,0,1-.146-7.806q1.7-1.481,5.429-1.481h6.545V429.51a5.375,5.375,0,0,0-1.444-4.058,5.861,5.861,0,0,0-4.223-1.389,10.178,10.178,0,0,0-3.638.658,9.129,9.129,0,0,0-2.943,1.755l-.914-1.316a10.162,10.162,0,0,1,3.437-1.993,12.49,12.49,0,0,1,4.2-.713ZM158.6,440.332a7.176,7.176,0,0,0,4.04-1.1,6.669,6.669,0,0,0,2.5-3.181v-3.583h-6.508a6.478,6.478,0,0,0-4.077,1.024,3.429,3.429,0,0,0-1.261,2.815,3.524,3.524,0,0,0,1.389,2.943A6.25,6.25,0,0,0,158.6,440.332Z" transform="translate(-115.311 -170.708)"/>
  <path class="cls-1" d="M183.829,422.453a7.658,7.658,0,0,1,5.667,2.084,8.116,8.116,0,0,1,2.084,6v11.152h-1.828V430.68a6.772,6.772,0,0,0-1.627-4.9,6.037,6.037,0,0,0-4.552-1.682,7.018,7.018,0,0,0-5.3,2.011,7.47,7.47,0,0,0-1.938,5.411v10.165h-1.828V422.6h1.755v4.132a7.261,7.261,0,0,1,2.943-3.144A9.068,9.068,0,0,1,183.829,422.453Z" transform="translate(-115.311 -170.708)"/>
  <path class="cls-1" d="M203.938,441.831a13.782,13.782,0,0,1-4.387-.695,9.071,9.071,0,0,1-3.254-1.755l.841-1.462a9.681,9.681,0,0,0,3.016,1.645,11.4,11.4,0,0,0,3.857.658,7.571,7.571,0,0,0,4.26-.951,3.029,3.029,0,0,0,1.371-2.632,2.465,2.465,0,0,0-.75-1.9,4.623,4.623,0,0,0-1.846-1.024q-1.1-.329-3.035-.694a25.34,25.34,0,0,1-3.656-.878,5.731,5.731,0,0,1-2.377-1.536,4.126,4.126,0,0,1-.987-2.925,4.575,4.575,0,0,1,1.883-3.748,8.49,8.49,0,0,1,5.356-1.481,13.115,13.115,0,0,1,3.62.512,9.061,9.061,0,0,1,2.925,1.353l-.841,1.463a8.734,8.734,0,0,0-2.669-1.28,10.875,10.875,0,0,0-3.071-.439,6.8,6.8,0,0,0-4.022.987,3.066,3.066,0,0,0-1.353,2.6,2.584,2.584,0,0,0,.768,1.992,4.831,4.831,0,0,0,1.883,1.06q1.115.347,3.126.749a26.812,26.812,0,0,1,3.6.859,5.476,5.476,0,0,1,2.322,1.481,3.978,3.978,0,0,1,.95,2.815,4.464,4.464,0,0,1-1.974,3.8A9.369,9.369,0,0,1,203.938,441.831Z" transform="translate(-115.311 -170.708)"/>
  <path class="cls-1" d="M226.168,422.453a9.493,9.493,0,0,1,4.827,1.243,8.9,8.9,0,0,1,3.382,3.437,10.1,10.1,0,0,1,1.225,5.009,10.2,10.2,0,0,1-1.225,5.027,8.739,8.739,0,0,1-3.382,3.437,9.6,9.6,0,0,1-4.827,1.225,8.938,8.938,0,0,1-4.57-1.188,8.234,8.234,0,0,1-3.181-3.309v11.444h-1.828V422.6h1.755v4.5a8.329,8.329,0,0,1,3.2-3.418,8.9,8.9,0,0,1,4.625-1.225Zm-.109,17.733a7.691,7.691,0,0,0,3.949-1.024,7.31,7.31,0,0,0,2.76-2.852,9.142,9.142,0,0,0,0-8.336,7.31,7.31,0,0,0-2.76-2.852,7.691,7.691,0,0,0-3.949-1.024,7.592,7.592,0,0,0-3.93,1.024,7.349,7.349,0,0,0-2.742,2.852,9.142,9.142,0,0,0,0,8.336,7.348,7.348,0,0,0,2.742,2.852A7.592,7.592,0,0,0,226.059,440.186Z" transform="translate(-115.311 -170.708)"/>
  <path class="cls-1" d="M248.728,441.831a9.66,9.66,0,0,1-4.881-1.243,8.95,8.95,0,0,1-3.419-3.455,10.639,10.639,0,0,1,0-9.982,8.955,8.955,0,0,1,3.419-3.455,10.205,10.205,0,0,1,9.762,0,8.958,8.958,0,0,1,3.419,3.455,10.641,10.641,0,0,1,0,9.982,8.953,8.953,0,0,1-3.419,3.455,9.66,9.66,0,0,1-4.881,1.243Zm0-1.645a7.592,7.592,0,0,0,3.93-1.024,7.35,7.35,0,0,0,2.742-2.852,9.142,9.142,0,0,0,0-8.336,7.35,7.35,0,0,0-2.742-2.852,8.056,8.056,0,0,0-7.861,0,7.35,7.35,0,0,0-2.742,2.852,9.142,9.142,0,0,0,0,8.336,7.349,7.349,0,0,0,2.742,2.852A7.593,7.593,0,0,0,248.728,440.186Z" transform="translate(-115.311 -170.708)"/>
  <path class="cls-1" d="M265.693,426.767a6.6,6.6,0,0,1,2.742-3.2,8.68,8.68,0,0,1,4.534-1.115v1.791l-.439-.037a6.344,6.344,0,0,0-4.972,1.993,7.989,7.989,0,0,0-1.791,5.539v9.945h-1.828V422.6h1.755Z" transform="translate(-115.311 -170.708)"/>
  <path class="cls-1" d="M288.362,440.478a4.6,4.6,0,0,1-1.737,1.006,6.842,6.842,0,0,1-2.176.347,5.151,5.151,0,0,1-3.839-1.371,5.206,5.206,0,0,1-1.353-3.821V424.171h-3.51V422.6h3.51v-4.168h1.828V422.6h6.069v1.572h-6.069v12.285a4.032,4.032,0,0,0,.9,2.834,3.434,3.434,0,0,0,2.651.969,4.242,4.242,0,0,0,2.962-1.06Z" transform="translate(-115.311 -170.708)"/>
  <path class="cls-1" d="M308.873,432.581H292.457a7.977,7.977,0,0,0,1.133,3.967,7.255,7.255,0,0,0,2.87,2.687,8.632,8.632,0,0,0,4.077.951,8.734,8.734,0,0,0,3.455-.677,6.728,6.728,0,0,0,2.651-1.993l1.06,1.206a8.142,8.142,0,0,1-3.126,2.3,10.885,10.885,0,0,1-9.159-.439,9.012,9.012,0,0,1-3.492-3.437,9.869,9.869,0,0,1-1.261-5.009,10.38,10.38,0,0,1,1.188-4.991,8.768,8.768,0,0,1,3.272-3.455,9.458,9.458,0,0,1,9.342-.018,8.708,8.708,0,0,1,3.254,3.418,10.273,10.273,0,0,1,1.188,4.973l-.036.512Zm-9.067-8.519a7.315,7.315,0,0,0-3.62.9,6.825,6.825,0,0,0-2.578,2.523,8.214,8.214,0,0,0-1.115,3.674h14.625a7.654,7.654,0,0,0-1.1-3.656,7.1,7.1,0,0,0-6.215-3.437Z" transform="translate(-115.311 -170.708)"/>
  <path class="cls-1" d="M340.939,414.555v27.13h-1.791v-4.5a8.194,8.194,0,0,1-3.181,3.437,8.971,8.971,0,0,1-4.643,1.207,9.489,9.489,0,0,1-4.826-1.243,8.9,8.9,0,0,1-3.382-3.437,10.1,10.1,0,0,1-1.225-5.009,10.206,10.206,0,0,1,1.225-5.027,8.738,8.738,0,0,1,3.382-3.437,9.6,9.6,0,0,1,4.826-1.225,8.807,8.807,0,0,1,4.589,1.206,8.593,8.593,0,0,1,3.2,3.364V414.555Zm-9.506,25.631a7.592,7.592,0,0,0,3.931-1.024,7.35,7.35,0,0,0,2.742-2.852,9.142,9.142,0,0,0,0-8.336,7.351,7.351,0,0,0-2.742-2.852,8.056,8.056,0,0,0-7.861,0,7.35,7.35,0,0,0-2.742,2.852,9.142,9.142,0,0,0,0,8.336,7.35,7.35,0,0,0,2.742,2.852A7.593,7.593,0,0,0,331.432,440.186Z" transform="translate(-115.311 -170.708)"/>
  <path class="cls-1" d="M364.778,432.581H348.361a7.978,7.978,0,0,0,1.133,3.967,7.255,7.255,0,0,0,2.87,2.687,8.632,8.632,0,0,0,4.077.951,8.734,8.734,0,0,0,3.455-.677,6.728,6.728,0,0,0,2.651-1.993l1.06,1.206a8.143,8.143,0,0,1-3.126,2.3,10.885,10.885,0,0,1-9.159-.439,9.012,9.012,0,0,1-3.492-3.437,9.869,9.869,0,0,1-1.262-5.009,10.38,10.38,0,0,1,1.188-4.991,8.768,8.768,0,0,1,3.272-3.455,9.458,9.458,0,0,1,9.342-.018,8.707,8.707,0,0,1,3.254,3.418,10.273,10.273,0,0,1,1.188,4.973l-.037.512Zm-9.067-8.519a7.315,7.315,0,0,0-3.62.9,6.825,6.825,0,0,0-2.578,2.523,8.214,8.214,0,0,0-1.115,3.674h14.625a7.654,7.654,0,0,0-1.1-3.656,7.1,7.1,0,0,0-6.216-3.437Z" transform="translate(-115.311 -170.708)"/>
  <path class="cls-1" d="M391.286,441.868a13.689,13.689,0,0,1-6.782-1.682,12.427,12.427,0,0,1-4.753-4.643,13.617,13.617,0,0,1,0-13.309,12.425,12.425,0,0,1,4.753-4.643,13.686,13.686,0,0,1,6.782-1.682,14.2,14.2,0,0,1,5.119.9,10.55,10.55,0,0,1,3.985,2.651l-1.17,1.207a10.712,10.712,0,0,0-7.861-3.035,11.843,11.843,0,0,0-5.85,1.462,10.7,10.7,0,0,0-4.131,4.04,11.809,11.809,0,0,0,0,11.517,10.7,10.7,0,0,0,4.131,4.04,11.839,11.839,0,0,0,5.85,1.463,10.722,10.722,0,0,0,7.861-3.071l1.17,1.206a10.7,10.7,0,0,1-4,2.669A13.989,13.989,0,0,1,391.286,441.868Z" transform="translate(-115.311 -170.708)"/>
  <path class="cls-1" d="M412.163,422.453a7.6,7.6,0,0,1,5.448,1.81,7.006,7.006,0,0,1,1.9,5.32v12.1h-1.755v-3.4a6.348,6.348,0,0,1-2.669,2.614,8.851,8.851,0,0,1-4.2.932,7.75,7.75,0,0,1-5.027-1.5,5.185,5.185,0,0,1-.146-7.806q1.7-1.481,5.429-1.481h6.545V429.51a5.375,5.375,0,0,0-1.444-4.058,5.861,5.861,0,0,0-4.223-1.389,10.178,10.178,0,0,0-3.638.658,9.129,9.129,0,0,0-2.943,1.755l-.914-1.316a10.162,10.162,0,0,1,3.437-1.993,12.49,12.49,0,0,1,4.2-.713Zm-1.024,17.879a7.176,7.176,0,0,0,4.04-1.1,6.669,6.669,0,0,0,2.5-3.181v-3.583h-6.508a6.478,6.478,0,0,0-4.077,1.024,3.429,3.429,0,0,0-1.261,2.815,3.524,3.524,0,0,0,1.389,2.943A6.25,6.25,0,0,0,411.139,440.332Z" transform="translate(-115.311 -170.708)"/>
  <path class="cls-1" d="M428.8,426.767a6.6,6.6,0,0,1,2.742-3.2,8.68,8.68,0,0,1,4.534-1.115v1.791l-.439-.037a6.344,6.344,0,0,0-4.972,1.993,7.989,7.989,0,0,0-1.791,5.539v9.945h-1.828V422.6H428.8Z" transform="translate(-115.311 -170.708)"/>
  <path class="cls-1" d="M458.122,422.6v17.038q0,4.753-2.3,7.02t-6.947,2.267a15.191,15.191,0,0,1-4.972-.8,9.667,9.667,0,0,1-3.766-2.23l.987-1.389a10.076,10.076,0,0,0,3.437,2.048,12.42,12.42,0,0,0,4.278.731q3.8,0,5.631-1.81t1.828-5.612v-3.218a8.107,8.107,0,0,1-3.254,3.218,9.636,9.636,0,0,1-4.68,1.133,9.937,9.937,0,0,1-4.844-1.188,8.745,8.745,0,0,1-3.419-3.309,9.848,9.848,0,0,1,0-9.579,8.621,8.621,0,0,1,3.419-3.291,10.064,10.064,0,0,1,4.844-1.17,9.674,9.674,0,0,1,4.753,1.17,7.987,7.987,0,0,1,3.254,3.291V422.6Zm-9.616,16.746a8.317,8.317,0,0,0,4.022-.969,7.033,7.033,0,0,0,2.8-2.706,7.772,7.772,0,0,0,1.005-3.967,7.671,7.671,0,0,0-1.005-3.949,7.069,7.069,0,0,0-2.8-2.688,8.32,8.32,0,0,0-4.022-.969,8.215,8.215,0,0,0-4,.969,7.1,7.1,0,0,0-2.779,2.688,7.671,7.671,0,0,0-1.005,3.949,7.772,7.772,0,0,0,1.005,3.967,7.063,7.063,0,0,0,2.779,2.706A8.212,8.212,0,0,0,448.506,439.345Z" transform="translate(-115.311 -170.708)"/>
  <path class="cls-1" d="M472.308,422.453a7.6,7.6,0,0,1,5.448,1.81,7.005,7.005,0,0,1,1.9,5.32v12.1H477.9v-3.4a6.348,6.348,0,0,1-2.669,2.614,8.851,8.851,0,0,1-4.2.932,7.75,7.75,0,0,1-5.027-1.5,5.185,5.185,0,0,1-.146-7.806q1.7-1.481,5.429-1.481h6.545V429.51a5.375,5.375,0,0,0-1.444-4.058,5.861,5.861,0,0,0-4.223-1.389,10.178,10.178,0,0,0-3.638.658,9.129,9.129,0,0,0-2.943,1.755l-.914-1.316a10.163,10.163,0,0,1,3.437-1.993,12.49,12.49,0,0,1,4.2-.713Zm-1.024,17.879a7.176,7.176,0,0,0,4.04-1.1,6.669,6.669,0,0,0,2.5-3.181v-3.583h-6.508a6.478,6.478,0,0,0-4.077,1.024,3.429,3.429,0,0,0-1.261,2.815,3.524,3.524,0,0,0,1.389,2.943A6.25,6.25,0,0,0,471.284,440.332Z" transform="translate(-115.311 -170.708)"/>
  <rect x="381.275" y="243.847" width="1.828" height="27.13"/>
  <path class="cls-1" d="M513.587,441.831a9.659,9.659,0,0,1-4.881-1.243,8.949,8.949,0,0,1-3.419-3.455,10.639,10.639,0,0,1,0-9.982,8.954,8.954,0,0,1,3.419-3.455,10.205,10.205,0,0,1,9.762,0,8.959,8.959,0,0,1,3.419,3.455,10.641,10.641,0,0,1,0,9.982,8.954,8.954,0,0,1-3.419,3.455,9.661,9.661,0,0,1-4.881,1.243Zm0-1.645a7.592,7.592,0,0,0,3.931-1.024,7.35,7.35,0,0,0,2.742-2.852,9.142,9.142,0,0,0,0-8.336,7.351,7.351,0,0,0-2.742-2.852,8.056,8.056,0,0,0-7.861,0,7.349,7.349,0,0,0-2.742,2.852,9.142,9.142,0,0,0,0,8.336,7.349,7.349,0,0,0,2.742,2.852A7.593,7.593,0,0,0,513.587,440.186Z" transform="translate(-115.311 -170.708)"/>
  <path class="cls-1" d="M536.366,441.831a9.907,9.907,0,0,1-4.973-1.243,8.916,8.916,0,0,1-3.437-3.455,10.712,10.712,0,0,1,0-10.018,8.792,8.792,0,0,1,3.437-3.437,10.024,10.024,0,0,1,4.973-1.225,9.619,9.619,0,0,1,4.186.9,7.555,7.555,0,0,1,3.053,2.614l-1.353.987a6.5,6.5,0,0,0-2.541-2.139,7.77,7.77,0,0,0-3.345-.713,7.976,7.976,0,0,0-4,1.005,7.145,7.145,0,0,0-2.778,2.834,9.295,9.295,0,0,0,0,8.409,7.145,7.145,0,0,0,2.778,2.834,7.975,7.975,0,0,0,4,1.005,7.766,7.766,0,0,0,3.345-.713,6.5,6.5,0,0,0,2.541-2.139l1.353.987a7.555,7.555,0,0,1-3.053,2.614A9.621,9.621,0,0,1,536.366,441.831Z" transform="translate(-115.311 -170.708)"/>
  <path class="cls-1" d="M555.525,422.453a7.6,7.6,0,0,1,5.448,1.81,7.006,7.006,0,0,1,1.9,5.32v12.1h-1.755v-3.4a6.348,6.348,0,0,1-2.669,2.614,8.851,8.851,0,0,1-4.2.932,7.75,7.75,0,0,1-5.027-1.5,5.185,5.185,0,0,1-.146-7.806q1.7-1.481,5.429-1.481h6.545V429.51a5.375,5.375,0,0,0-1.444-4.058,5.861,5.861,0,0,0-4.223-1.389,10.178,10.178,0,0,0-3.638.658,9.129,9.129,0,0,0-2.943,1.755l-.914-1.316a10.163,10.163,0,0,1,3.437-1.993,12.49,12.49,0,0,1,4.2-.713ZM554.5,440.332a7.176,7.176,0,0,0,4.04-1.1,6.669,6.669,0,0,0,2.5-3.181v-3.583h-6.508a6.478,6.478,0,0,0-4.077,1.024,3.429,3.429,0,0,0-1.261,2.815,3.524,3.524,0,0,0,1.389,2.943A6.25,6.25,0,0,0,554.5,440.332Z" transform="translate(-115.311 -170.708)"/>
  <rect x="455.095" y="243.847" width="1.828" height="27.13"/>
</svg>
