<svg id="Layer_1" data-name="Layer 1" xmlns="http://www.w3.org/2000/svg" viewBox="0 0 327.851 189.834">
  <defs>
    <style>
      .cls-1, .cls-2 {
        fill-rule: evenodd;
      }

      .cls-2 {
        fill: #9f0;
      }
    </style>
  </defs>
  <title>varympex2</title>
  <g>
    <path class="cls-1" d="M339.848,254.156h.2c.252-.71,2.983-5.112,3.659-6.328L351.05,235.3c1.215-2.1,2.416-4.255,3.673-6.266,2.24-3.573,2.387-3.388,1.582-4.8l-11.854-20.212c-4.765-8.276-9.753-16.629-14.656-24.938-1.248-2.116-2.387-4.141-3.683-6.251s-2.382-4.174-3.678-6.256l-7.3-12.479H281.189v.21l14.723,24.962c2.421,4.241,4.846,8.324,7.352,12.517,2.354,3.931,5.012,8.791,7.3,12.412,2.554,4.036,4.831,8.4,7.362,12.512.624,1.01,1.22,2.12,1.82,3.15.638,1.1,1.248,2.049,1.844,3.121,2.244,4.06,4.9,8.167,7.3,12.422C329.994,237.346,339.486,253.184,339.848,254.156Z" transform="translate(-175.957 -154.097)"/>
    <path class="cls-2" d="M398.7,154.392v-.3H364.715c-.3.872-4.174,7.252-4.979,8.591-5.908,9.811-11.645,20.026-17.505,29.77-.729,1.215-.663,1.106.081,2.3l6.242,10.625c2.158,3.7,5.646,9.32,7.514,12.8a29.928,29.928,0,0,0,2.559,4.122c.481-.491,4.35-7.276,5.084-8.52l10.03-17.057c4.993-8.319,10-17.191,14.928-25.42.848-1.425,1.582-2.73,2.5-4.269C392.369,165.018,398.211,154.84,398.7,154.392Z" transform="translate(-175.957 -154.097)"/>
  </g>
  <path class="cls-1" d="M189.558,309.795l-9.239-26.878a.407.407,0,0,0-.434-.314h-3.44a.448.448,0,0,0-.386.19.455.455,0,0,0-.076.438l11.6,33.758a.428.428,0,0,0,.439.315H191.1a.418.418,0,0,0,.438-.315l11.607-33.758a.467.467,0,0,0-.076-.438.445.445,0,0,0-.381-.19h-3.44a.449.449,0,0,0-.462.314Z" transform="translate(-175.957 -154.097)"/>
  <path class="cls-1" d="M226.7,299.522l4.388-10.549,4.36,10.549Zm2.692-16.991a.3.3,0,0,0-.286.19l-14.18,34.144a.278.278,0,0,0,.024.291.3.3,0,0,0,.267.148h3.878a.288.288,0,0,0,.291-.191l5.551-13.384h12.283l5.551,13.384a.278.278,0,0,0,.286.191h3.883a.3.3,0,0,0,.262-.148.26.26,0,0,0,.024-.291L233.05,282.721a.287.287,0,0,0-.291-.19Z" transform="translate(-175.957 -154.097)"/>
  <path class="cls-1" d="M268.842,297.84V286.991H277.5a5.409,5.409,0,0,1,5.451,5.422,5.458,5.458,0,0,1-5.451,5.427Zm10.811,4.126a10.04,10.04,0,0,0,5.4-3.3,9.8,9.8,0,0,0-7.557-16.09h-12.75a.278.278,0,0,0-.315.314v34.02a.28.28,0,0,0,.315.315h3.783a.28.28,0,0,0,.314-.315V302.257h5.989l-.029.024,8.143,14.852a.264.264,0,0,0,.262.171h4.317a.276.276,0,0,0,.267-.148.314.314,0,0,0,.024-.315Z" transform="translate(-175.957 -154.097)"/>
  <path class="cls-1" d="M323.946,282.631a.3.3,0,0,0-.272.138l-7.628,12.145-7.633-12.145a.273.273,0,0,0-.272-.138H303.93a.252.252,0,0,0-.267.162.272.272,0,0,0,0,.315l10.273,16.362v17.52a.278.278,0,0,0,.314.315h3.583a.285.285,0,0,0,.324-.315V299.522l10.3-16.414a.31.31,0,0,0,0-.315.3.3,0,0,0-.272-.162Z" transform="translate(-175.957 -154.097)"/>
  <path class="cls-1" d="M372.689,282.6a.825.825,0,0,0-.629.291L360.215,296.12l-11.831-13.227a.825.825,0,0,0-.629-.291H346.35a.278.278,0,0,0-.315.314v34.072a.282.282,0,0,0,.315.315h3.583a.285.285,0,0,0,.324-.315V291.3l9.734,10.887a.285.285,0,0,0,.462,0l9.768-10.911v25.715a.278.278,0,0,0,.314.315h3.583a.278.278,0,0,0,.315-.315V282.917a.274.274,0,0,0-.315-.314Z" transform="translate(-175.957 -154.097)"/>
  <path class="cls-1" d="M399.81,297.916v-10.9h8.7a5.451,5.451,0,1,1,0,10.9Zm-4.121-15.338c-.2,0-.314.09-.314.291v34.12a.282.282,0,0,0,.314.315H399.5a.282.282,0,0,0,.315-.315V302.376h8.5a9.86,9.86,0,0,0,7.009-2.792,9.848,9.848,0,0,0-6.809-17.005Z" transform="translate(-175.957 -154.097)"/>
  <path class="cls-1" d="M437.442,282.6a.278.278,0,0,0-.315.314v34.072a.282.282,0,0,0,.315.315h22.532a.285.285,0,0,0,.324-.315v-3.778c0-.214-.11-.314-.324-.314H441.539v-10.74H454.89a.276.276,0,0,0,.314-.314v-3.778a.274.274,0,0,0-.314-.315H441.539V287.014h18.435a.285.285,0,0,0,.324-.314v-3.783c0-.214-.11-.314-.324-.314Z" transform="translate(-175.957 -154.097)"/>
  <path class="cls-1" d="M497.848,282.631a.27.27,0,0,0-.267.138l-8.286,13.16-8.262-13.16a.262.262,0,0,0-.267-.138h-4.36a.265.265,0,0,0-.272.162.31.31,0,0,0,0,.315L486.756,300l-10.573,16.819a.288.288,0,0,0,0,.315.305.305,0,0,0,.276.171h4.384a.3.3,0,0,0,.262-.148l8.19-13.089,8.215,13.089a.308.308,0,0,0,.272.148h4.383a.292.292,0,0,0,.267-.171.271.271,0,0,0,0-.315L491.869,300l10.611-16.891a.271.271,0,0,0,0-.315.281.281,0,0,0-.262-.162Z" transform="translate(-175.957 -154.097)"/>
  <path class="cls-1" d="M194.27,335.844h-8.236l-1.848,4.124h-.727l6.369-14.081h.649l6.369,14.081h-.727l-1.848-4.124Zm-.255-.583-3.853-8.589-3.872,8.589Z" transform="translate(-175.957 -154.097)"/>
  <path class="cls-1" d="M214.931,329.528v9.434a5.159,5.159,0,0,1-1.2,3.751,4.871,4.871,0,0,1-3.617,1.217,7.657,7.657,0,0,1-2.634-.442,4.75,4.75,0,0,1-1.946-1.247l.374-.5a5.425,5.425,0,0,0,1.858,1.177,6.426,6.426,0,0,0,2.329.412,4.278,4.278,0,0,0,3.165-1.036,4.473,4.473,0,0,0,1.022-3.248V336.83a4.5,4.5,0,0,1-1.749,2.032,4.937,4.937,0,0,1-2.693.744,5.135,5.135,0,0,1-2.585-.654,4.741,4.741,0,0,1-1.809-1.81,5.561,5.561,0,0,1,0-5.25,4.67,4.67,0,0,1,1.809-1.8,5.2,5.2,0,0,1,2.585-.644,4.987,4.987,0,0,1,2.7.744,4.47,4.47,0,0,1,1.759,2.052v-2.716ZM209.86,339a4.523,4.523,0,0,0,2.27-.574,4.146,4.146,0,0,0,1.592-1.6,4.618,4.618,0,0,0,.58-2.313,4.562,4.562,0,0,0-.58-2.3,4.1,4.1,0,0,0-1.592-1.579,4.857,4.857,0,0,0-4.541,0,4.027,4.027,0,0,0-1.582,1.579,4.976,4.976,0,0,0,0,4.626,4.094,4.094,0,0,0,1.582,1.589A4.524,4.524,0,0,0,209.86,339Z" transform="translate(-175.957 -154.097)"/>
  <path class="cls-1" d="M234.57,334.839h-8.944a4.9,4.9,0,0,0,.609,2.373,4.209,4.209,0,0,0,1.622,1.629,4.61,4.61,0,0,0,2.309.583,4.7,4.7,0,0,0,1.926-.392,3.606,3.606,0,0,0,1.454-1.156l.413.442a4.616,4.616,0,0,1-1.671,1.267,5.11,5.11,0,0,1-2.123.443,5.241,5.241,0,0,1-2.663-.674,4.822,4.822,0,0,1-1.838-1.881,5.552,5.552,0,0,1-.668-2.736,5.909,5.909,0,0,1,.619-2.736,4.593,4.593,0,0,1,4.177-2.555,4.579,4.579,0,0,1,2.428.664,4.68,4.68,0,0,1,1.72,1.851,5.667,5.667,0,0,1,.629,2.7v.181Zm-4.777-4.787a3.963,3.963,0,0,0-3.538,2.062,4.858,4.858,0,0,0-.609,2.182h8.314a4.967,4.967,0,0,0-.639-2.182,4.1,4.1,0,0,0-1.474-1.519A3.946,3.946,0,0,0,229.794,330.051Z" transform="translate(-175.957 -154.097)"/>
  <path class="cls-1" d="M249.453,329.448a3.991,3.991,0,0,1,3.007,1.137,4.481,4.481,0,0,1,1.1,3.249v6.135h-.649v-6.095a3.985,3.985,0,0,0-.914-2.826,3.4,3.4,0,0,0-2.6-.976,3.954,3.954,0,0,0-3.007,1.157,4.323,4.323,0,0,0-1.1,3.108v5.632h-.649v-10.44h.629v2.555a4.02,4.02,0,0,1,1.582-1.931A4.7,4.7,0,0,1,249.453,329.448Z" transform="translate(-175.957 -154.097)"/>
  <path class="cls-1" d="M269.485,339.3a2.419,2.419,0,0,1-.9.533,3.457,3.457,0,0,1-1.14.191,2.517,2.517,0,0,1-1.916-.714,2.733,2.733,0,0,1-.678-1.961v-7.241H262.92v-.583h1.926v-2.293h.649v2.293h3.361v.583h-3.361v7.141a2.344,2.344,0,0,0,.511,1.629,1.915,1.915,0,0,0,1.494.563,2.328,2.328,0,0,0,1.651-.624Z" transform="translate(-175.957 -154.097)"/>
  <path class="cls-1" d="M287.257,334.839h-8.944a4.9,4.9,0,0,0,.609,2.373,4.208,4.208,0,0,0,1.621,1.629,4.611,4.611,0,0,0,2.31.583,4.7,4.7,0,0,0,1.926-.392,3.6,3.6,0,0,0,1.455-1.156l.413.442a4.619,4.619,0,0,1-1.671,1.267,5.11,5.11,0,0,1-2.123.443,5.241,5.241,0,0,1-2.664-.674,4.82,4.82,0,0,1-1.837-1.881,5.548,5.548,0,0,1-.668-2.736A5.909,5.909,0,0,1,278.3,332a4.592,4.592,0,0,1,4.177-2.555,4.579,4.579,0,0,1,2.428.664,4.679,4.679,0,0,1,1.72,1.851,5.663,5.663,0,0,1,.629,2.7v.181Zm-4.777-4.787a3.964,3.964,0,0,0-3.538,2.062,4.862,4.862,0,0,0-.609,2.182h8.315a4.969,4.969,0,0,0-.639-2.182,4.1,4.1,0,0,0-1.474-1.519A3.947,3.947,0,0,0,282.48,330.051Z" transform="translate(-175.957 -154.097)"/>
  <path class="cls-1" d="M299.781,340.028a7,7,0,0,1-2.329-.382,4.343,4.343,0,0,1-1.7-1.006l.314-.523a5.217,5.217,0,0,0,1.622.945,5.826,5.826,0,0,0,2.113.382,4.162,4.162,0,0,0,2.437-.573,1.867,1.867,0,0,0,.786-1.6,1.549,1.549,0,0,0-.423-1.147,2.564,2.564,0,0,0-1.052-.623,14.942,14.942,0,0,0-1.69-.4,15.565,15.565,0,0,1-1.975-.493,2.933,2.933,0,0,1-1.248-.815,2.252,2.252,0,0,1-.511-1.569,2.476,2.476,0,0,1,.953-1.981,4.246,4.246,0,0,1,2.781-.795,6.362,6.362,0,0,1,1.887.292,4.491,4.491,0,0,1,1.533.774l-.334.523a4.324,4.324,0,0,0-1.425-.734,5.673,5.673,0,0,0-1.68-.251,3.685,3.685,0,0,0-2.28.594,1.876,1.876,0,0,0-.766,1.559,1.653,1.653,0,0,0,.432,1.207,2.622,2.622,0,0,0,1.071.654,15.583,15.583,0,0,0,1.74.433,13.848,13.848,0,0,1,1.907.473,2.959,2.959,0,0,1,1.228.795,2.14,2.14,0,0,1,.5,1.509,2.374,2.374,0,0,1-1,2.011A4.788,4.788,0,0,1,299.781,340.028Z" transform="translate(-175.957 -154.097)"/>
  <path class="cls-1" d="M345.265,325.043v14.925h-.629v-2.856a4.64,4.64,0,0,1-1.74,2.142,4.715,4.715,0,0,1-2.663.774,4.892,4.892,0,0,1-2.536-.674,4.818,4.818,0,0,1-1.8-1.881,6.012,6.012,0,0,1,0-5.471,4.815,4.815,0,0,1,1.8-1.881,4.889,4.889,0,0,1,2.536-.674,4.726,4.726,0,0,1,2.644.764,4.593,4.593,0,0,1,1.739,2.112v-7.282Zm-5.012,14.382a4.265,4.265,0,0,0,2.231-.593,4.185,4.185,0,0,0,1.562-1.66,5.078,5.078,0,0,0,.57-2.434,5.021,5.021,0,0,0-.57-2.424,4.2,4.2,0,0,0-1.562-1.649,4.489,4.489,0,0,0-4.462,0,4.208,4.208,0,0,0-1.562,1.649,5.022,5.022,0,0,0-.57,2.424,5.08,5.08,0,0,0,.57,2.434,4.19,4.19,0,0,0,1.563,1.66A4.266,4.266,0,0,0,340.253,339.425Z" transform="translate(-175.957 -154.097)"/>
  <path class="cls-1" d="M364.9,334.839h-8.944a4.9,4.9,0,0,0,.609,2.373,4.208,4.208,0,0,0,1.622,1.629,4.61,4.61,0,0,0,2.31.583,4.7,4.7,0,0,0,1.926-.392,3.6,3.6,0,0,0,1.454-1.156l.413.442a4.616,4.616,0,0,1-1.671,1.267,5.11,5.11,0,0,1-2.123.443,5.241,5.241,0,0,1-2.664-.674A4.823,4.823,0,0,1,356,337.474a5.552,5.552,0,0,1-.668-2.736,5.909,5.909,0,0,1,.619-2.736,4.593,4.593,0,0,1,4.177-2.555,4.58,4.58,0,0,1,2.428.664,4.681,4.681,0,0,1,1.72,1.851,5.667,5.667,0,0,1,.629,2.7v.181Zm-4.777-4.787a3.963,3.963,0,0,0-3.538,2.062,4.862,4.862,0,0,0-.609,2.182h8.314a4.968,4.968,0,0,0-.639-2.182,4.1,4.1,0,0,0-1.474-1.519A3.946,3.946,0,0,0,360.128,330.051Z" transform="translate(-175.957 -154.097)"/>
  <path class="cls-1" d="M406.713,335.844h-8.236l-1.848,4.124H395.9l6.369-14.081h.649l6.368,14.081h-.727l-1.848-4.124Zm-.255-.583-3.853-8.589-3.872,8.589Z" transform="translate(-175.957 -154.097)"/>
  <path class="cls-1" d="M427.256,325.043v14.925h-.629v-2.856a4.64,4.64,0,0,1-1.74,2.142,4.715,4.715,0,0,1-2.663.774,4.891,4.891,0,0,1-2.536-.674,4.818,4.818,0,0,1-1.8-1.881,6.012,6.012,0,0,1,0-5.471,4.815,4.815,0,0,1,1.8-1.881,4.889,4.889,0,0,1,2.536-.674,4.726,4.726,0,0,1,2.644.764,4.594,4.594,0,0,1,1.739,2.112v-7.282Zm-5.012,14.382a4.265,4.265,0,0,0,2.231-.593,4.185,4.185,0,0,0,1.562-1.66,5.08,5.08,0,0,0,.57-2.434,5.022,5.022,0,0,0-.57-2.424,4.2,4.2,0,0,0-1.562-1.649,4.489,4.489,0,0,0-4.462,0,4.207,4.207,0,0,0-1.562,1.649,5.022,5.022,0,0,0-.57,2.424,5.08,5.08,0,0,0,.57,2.434,4.189,4.189,0,0,0,1.563,1.66A4.266,4.266,0,0,0,422.244,339.425Z" transform="translate(-175.957 -154.097)"/>
  <path class="cls-1" d="M447.21,329.528v10.44h-.629v-2.534a3.886,3.886,0,0,1-1.513,1.911,4.41,4.41,0,0,1-2.477.684,4.185,4.185,0,0,1-3.106-1.127,4.4,4.4,0,0,1-1.121-3.239v-6.135h.649v6.095a3.93,3.93,0,0,0,.933,2.826,3.513,3.513,0,0,0,2.663.976,3.728,3.728,0,0,0,2.89-1.156,4.418,4.418,0,0,0,1.062-3.108v-5.632Z" transform="translate(-175.957 -154.097)"/>
  <path class="cls-1" d="M461.778,329.448a3.808,3.808,0,0,1,2.8.966,3.768,3.768,0,0,1,.973,2.8v6.759h-.629v-2.092a3.665,3.665,0,0,1-1.464,1.579,4.507,4.507,0,0,1-2.329.573,4.089,4.089,0,0,1-2.683-.8,2.834,2.834,0,0,1-.088-4.194,4.166,4.166,0,0,1,2.83-.795H464.9v-1.026a3.208,3.208,0,0,0-.8-2.353,3.164,3.164,0,0,0-2.349-.8,5.347,5.347,0,0,0-2.025.382,5,5,0,0,0-1.612,1.026l-.354-.483a5.236,5.236,0,0,1,1.8-1.126,6.132,6.132,0,0,1,2.211-.4Zm-.61,10.017a3.682,3.682,0,0,0,3.735-2.514v-2.172h-3.715a3.614,3.614,0,0,0-2.329.613,2.047,2.047,0,0,0-.737,1.66,2.131,2.131,0,0,0,.816,1.77A3.509,3.509,0,0,0,461.168,339.465Z" transform="translate(-175.957 -154.097)"/>
  <path class="cls-1" d="M481.476,329.448a3.992,3.992,0,0,1,3.008,1.137,4.482,4.482,0,0,1,1.1,3.249v6.135h-.649v-6.095a3.985,3.985,0,0,0-.914-2.826,3.4,3.4,0,0,0-2.6-.976,3.954,3.954,0,0,0-3.007,1.157,4.322,4.322,0,0,0-1.1,3.108v5.632h-.648v-10.44h.629v2.555a4.02,4.02,0,0,1,1.583-1.931A4.7,4.7,0,0,1,481.476,329.448Z" transform="translate(-175.957 -154.097)"/>
  <path class="cls-1" d="M500.034,329.448a3.809,3.809,0,0,1,2.8.966,3.767,3.767,0,0,1,.973,2.8v6.759h-.629v-2.092a3.664,3.664,0,0,1-1.465,1.579,4.506,4.506,0,0,1-2.329.573,4.088,4.088,0,0,1-2.683-.8,2.834,2.834,0,0,1-.089-4.194,4.167,4.167,0,0,1,2.83-.795h3.715v-1.026a3.21,3.21,0,0,0-.8-2.353,3.165,3.165,0,0,0-2.349-.8,5.345,5.345,0,0,0-2.024.382,5,5,0,0,0-1.612,1.026l-.354-.483a5.235,5.235,0,0,1,1.8-1.126,6.131,6.131,0,0,1,2.211-.4Zm-.609,10.017a3.681,3.681,0,0,0,3.735-2.514v-2.172h-3.715a3.612,3.612,0,0,0-2.329.613,2.046,2.046,0,0,0-.737,1.66,2.131,2.131,0,0,0,.815,1.77A3.51,3.51,0,0,0,499.425,339.465Z" transform="translate(-175.957 -154.097)"/>
</svg>
